<svg width="272" height="127" viewBox="0 0 272 127" fill="none" xmlns="http://www.w3.org/2000/svg">
<path d="M64.5421 110.417C74.8647 103.511 118.9 90.1759 212.458 92.0829" stroke="url(#paint0_linear_23_531)" stroke-width="4" stroke-linecap="round"/>
<path d="M2.84228 10.566C3.09428 10.566 3.59828 10.566 4.35428 10.566C5.11028 10.538 5.95028 10.524 6.87428 10.524C7.79828 10.524 8.69428 10.524 9.56228 10.524C10.4303 10.496 11.1023 10.482 11.5783 10.482C15.1623 10.482 17.8503 11.168 19.6423 12.54C21.4343 13.912 22.3303 15.942 22.3303 18.63C22.3303 20.422 21.8963 21.906 21.0283 23.082C20.1603 24.23 18.9843 25.126 17.5003 25.77C18.3403 26.246 19.0823 26.876 19.7263 27.66C20.3703 28.444 20.9863 29.396 21.5743 30.516C22.1623 31.608 22.7503 32.868 23.3383 34.296C23.9543 35.724 24.6263 37.292 25.3543 39H17.9203C17.0243 37.04 16.2683 35.318 15.6523 33.834C15.0363 32.322 14.4623 31.062 13.9303 30.054C13.3983 29.018 12.8663 28.248 12.3343 27.744C11.8303 27.212 11.2143 26.946 10.4863 26.946H9.77228V39H2.84228V10.566ZM9.77228 22.62H11.5363C12.5163 22.62 13.3423 22.326 14.0143 21.738C14.7143 21.122 15.0643 20.17 15.0643 18.882C15.0643 18.35 14.9943 17.86 14.8543 17.412C14.7423 16.936 14.5463 16.53 14.2663 16.194C13.9863 15.83 13.5943 15.55 13.0903 15.354C12.6143 15.13 12.0263 15.018 11.3263 15.018H9.77228V22.62ZM25.6945 29.046C25.6945 27.17 25.9605 25.518 26.4925 24.09C27.0525 22.634 27.8085 21.43 28.7605 20.478C29.7405 19.498 30.8745 18.756 32.1625 18.252C33.4505 17.748 34.8505 17.496 36.3625 17.496C37.6785 17.496 38.7985 17.664 39.7225 18C40.6465 18.308 41.4025 18.756 41.9905 19.344C42.5785 19.904 43.0125 20.576 43.2925 21.36C43.5725 22.116 43.7125 22.942 43.7125 23.838C43.7125 24.846 43.4605 25.798 42.9565 26.694C42.4525 27.59 41.7245 28.388 40.7725 29.088C39.8485 29.76 38.7145 30.32 37.3705 30.768C36.0545 31.216 34.5565 31.51 32.8765 31.65C33.0725 32.49 33.4225 33.176 33.9265 33.708C34.4585 34.212 35.2565 34.464 36.3205 34.464C36.9365 34.464 37.5945 34.394 38.2945 34.254C38.9945 34.114 39.6385 33.96 40.2265 33.792C40.9265 33.596 41.6125 33.372 42.2845 33.12L43.5445 37.488C42.7885 37.852 41.9625 38.174 41.0665 38.454C40.3105 38.678 39.4285 38.888 38.4205 39.084C37.4405 39.28 36.3905 39.378 35.2705 39.378C33.5625 39.378 32.0925 39.126 30.8605 38.622C29.6565 38.118 28.6625 37.418 27.8785 36.522C27.1225 35.626 26.5625 34.548 26.1985 33.288C25.8625 32 25.6945 30.586 25.6945 29.046ZM35.5225 22.242C34.9905 22.242 34.5285 22.396 34.1365 22.704C33.7725 23.012 33.4785 23.418 33.2545 23.922C33.0305 24.426 32.8625 24.986 32.7505 25.602C32.6385 26.218 32.5685 26.82 32.5405 27.408C33.3805 27.38 34.0805 27.254 34.6405 27.03C35.2285 26.806 35.7045 26.526 36.0685 26.19C36.4325 25.854 36.6985 25.49 36.8665 25.098C37.0345 24.706 37.1185 24.342 37.1185 24.006C37.1185 23.474 36.9645 23.054 36.6565 22.746C36.3765 22.41 35.9985 22.242 35.5225 22.242ZM69.3122 39V25.896C69.3122 24.916 69.2282 24.132 69.0602 23.544C68.8922 22.928 68.5142 22.62 67.9262 22.62C67.2542 22.62 66.6242 23.11 66.0362 24.09C65.4482 25.042 65.1542 26.316 65.1542 27.912V39H58.4762V25.896C58.4762 24.916 58.3922 24.132 58.2242 23.544C58.0842 22.928 57.7062 22.62 57.0902 22.62C56.3902 22.62 55.7462 23.124 55.1582 24.132C54.5982 25.112 54.3182 26.442 54.3182 28.122V39H47.6822V28.08C47.6822 26.4 47.5562 25.014 47.3042 23.922C47.0802 22.802 46.8142 21.892 46.5062 21.192C46.1702 20.408 45.7922 19.778 45.3722 19.302L50.7062 17.622C50.9302 17.902 51.1682 18.224 51.4202 18.588C51.6442 18.896 51.8542 19.302 52.0502 19.806C52.2742 20.282 52.4702 20.828 52.6382 21.444C53.3102 20.128 54.2342 19.162 55.4102 18.546C56.6142 17.93 57.9442 17.622 59.4002 17.622C60.6322 17.622 61.6262 17.874 62.3822 18.378C63.1662 18.854 63.7962 19.554 64.2722 20.478C65.0002 19.47 65.8682 18.742 66.8762 18.294C67.8842 17.846 69.0042 17.622 70.2362 17.622C71.3282 17.622 72.2382 17.804 72.9662 18.168C73.6942 18.504 74.2682 18.994 74.6882 19.638C75.1362 20.254 75.4582 21.024 75.6542 21.948C75.8502 22.844 75.9482 23.838 75.9482 24.93V39H69.3122ZM79.302 29.046C79.302 27.17 79.568 25.518 80.1 24.09C80.66 22.634 81.416 21.43 82.368 20.478C83.348 19.498 84.482 18.756 85.77 18.252C87.058 17.748 88.458 17.496 89.97 17.496C91.286 17.496 92.406 17.664 93.33 18C94.254 18.308 95.01 18.756 95.598 19.344C96.186 19.904 96.62 20.576 96.9 21.36C97.18 22.116 97.32 22.942 97.32 23.838C97.32 24.846 97.068 25.798 96.564 26.694C96.06 27.59 95.332 28.388 94.38 29.088C93.456 29.76 92.322 30.32 90.978 30.768C89.662 31.216 88.164 31.51 86.484 31.65C86.68 32.49 87.03 33.176 87.534 33.708C88.066 34.212 88.864 34.464 89.928 34.464C90.544 34.464 91.202 34.394 91.902 34.254C92.602 34.114 93.246 33.96 93.834 33.792C94.534 33.596 95.22 33.372 95.892 33.12L97.152 37.488C96.396 37.852 95.57 38.174 94.674 38.454C93.918 38.678 93.036 38.888 92.028 39.084C91.048 39.28 89.998 39.378 88.878 39.378C87.17 39.378 85.7 39.126 84.468 38.622C83.264 38.118 82.27 37.418 81.486 36.522C80.73 35.626 80.17 34.548 79.806 33.288C79.47 32 79.302 30.586 79.302 29.046ZM89.13 22.242C88.598 22.242 88.136 22.396 87.744 22.704C87.38 23.012 87.086 23.418 86.862 23.922C86.638 24.426 86.47 24.986 86.358 25.602C86.246 26.218 86.176 26.82 86.148 27.408C86.988 27.38 87.688 27.254 88.248 27.03C88.836 26.806 89.312 26.526 89.676 26.19C90.04 25.854 90.306 25.49 90.474 25.098C90.642 24.706 90.726 24.342 90.726 24.006C90.726 23.474 90.572 23.054 90.264 22.746C89.984 22.41 89.606 22.242 89.13 22.242ZM122.92 39V25.896C122.92 24.916 122.836 24.132 122.668 23.544C122.5 22.928 122.122 22.62 121.534 22.62C120.862 22.62 120.232 23.11 119.644 24.09C119.056 25.042 118.762 26.316 118.762 27.912V39H112.084V25.896C112.084 24.916 112 24.132 111.832 23.544C111.692 22.928 111.314 22.62 110.698 22.62C109.998 22.62 109.354 23.124 108.766 24.132C108.206 25.112 107.926 26.442 107.926 28.122V39H101.29V28.08C101.29 26.4 101.164 25.014 100.912 23.922C100.688 22.802 100.422 21.892 100.114 21.192C99.7776 20.408 99.3996 19.778 98.9796 19.302L104.314 17.622C104.538 17.902 104.776 18.224 105.028 18.588C105.252 18.896 105.462 19.302 105.658 19.806C105.882 20.282 106.078 20.828 106.246 21.444C106.918 20.128 107.842 19.162 109.018 18.546C110.222 17.93 111.552 17.622 113.008 17.622C114.24 17.622 115.234 17.874 115.99 18.378C116.774 18.854 117.404 19.554 117.88 20.478C118.608 19.47 119.476 18.742 120.484 18.294C121.492 17.846 122.612 17.622 123.844 17.622C124.936 17.622 125.846 17.804 126.574 18.168C127.302 18.504 127.876 18.994 128.296 19.638C128.744 20.254 129.066 21.024 129.262 21.948C129.458 22.844 129.556 23.838 129.556 24.93V39H122.92ZM134.169 9.684L140.805 8.55V19.722C141.897 18.322 143.353 17.622 145.173 17.622C146.489 17.622 147.637 17.874 148.617 18.378C149.625 18.882 150.451 19.596 151.095 20.52C151.767 21.416 152.257 22.508 152.565 23.796C152.901 25.084 153.069 26.526 153.069 28.122C153.069 29.718 152.803 31.202 152.271 32.574C151.767 33.918 151.053 35.094 150.129 36.102C149.205 37.082 148.099 37.852 146.811 38.412C145.523 38.972 144.095 39.252 142.527 39.252C141.659 39.252 140.749 39.196 139.797 39.084C138.873 38.972 138.005 38.846 137.193 38.706C136.409 38.566 135.737 38.44 135.177 38.328C134.617 38.188 134.281 38.09 134.169 38.034V9.684ZM143.871 22.494C143.423 22.494 143.003 22.69 142.611 23.082C142.247 23.474 141.925 23.992 141.645 24.636C141.393 25.28 141.183 26.036 141.015 26.904C140.875 27.772 140.805 28.668 140.805 29.592V34.086C140.973 34.142 141.225 34.212 141.561 34.296C141.925 34.352 142.247 34.38 142.527 34.38C143.199 34.38 143.759 34.24 144.207 33.96C144.655 33.652 145.005 33.246 145.257 32.742C145.537 32.21 145.733 31.594 145.845 30.894C145.957 30.166 146.013 29.382 146.013 28.542C146.013 27.758 145.999 27.002 145.971 26.274C145.943 25.546 145.845 24.902 145.677 24.342C145.537 23.782 145.327 23.334 145.047 22.998C144.767 22.662 144.375 22.494 143.871 22.494ZM155.345 29.046C155.345 27.17 155.611 25.518 156.143 24.09C156.703 22.634 157.459 21.43 158.411 20.478C159.391 19.498 160.525 18.756 161.813 18.252C163.101 17.748 164.501 17.496 166.013 17.496C167.329 17.496 168.449 17.664 169.373 18C170.297 18.308 171.053 18.756 171.641 19.344C172.229 19.904 172.663 20.576 172.943 21.36C173.223 22.116 173.363 22.942 173.363 23.838C173.363 24.846 173.111 25.798 172.607 26.694C172.103 27.59 171.375 28.388 170.423 29.088C169.499 29.76 168.365 30.32 167.021 30.768C165.705 31.216 164.207 31.51 162.527 31.65C162.723 32.49 163.073 33.176 163.577 33.708C164.109 34.212 164.907 34.464 165.971 34.464C166.587 34.464 167.245 34.394 167.945 34.254C168.645 34.114 169.289 33.96 169.877 33.792C170.577 33.596 171.263 33.372 171.935 33.12L173.195 37.488C172.439 37.852 171.613 38.174 170.717 38.454C169.961 38.678 169.079 38.888 168.071 39.084C167.091 39.28 166.041 39.378 164.921 39.378C163.213 39.378 161.743 39.126 160.511 38.622C159.307 38.118 158.313 37.418 157.529 36.522C156.773 35.626 156.213 34.548 155.849 33.288C155.513 32 155.345 30.586 155.345 29.046ZM165.173 22.242C164.641 22.242 164.179 22.396 163.787 22.704C163.423 23.012 163.129 23.418 162.905 23.922C162.681 24.426 162.513 24.986 162.401 25.602C162.289 26.218 162.219 26.82 162.191 27.408C163.031 27.38 163.731 27.254 164.291 27.03C164.879 26.806 165.355 26.526 165.719 26.19C166.083 25.854 166.349 25.49 166.517 25.098C166.685 24.706 166.769 24.342 166.769 24.006C166.769 23.474 166.615 23.054 166.307 22.746C166.027 22.41 165.649 22.242 165.173 22.242ZM187.203 23.964C186.895 23.964 186.559 24.048 186.195 24.216C185.831 24.384 185.481 24.65 185.145 25.014C184.809 25.35 184.529 25.798 184.305 26.358C184.081 26.89 183.969 27.534 183.969 28.29V39H177.333V28.08C177.333 26.4 177.207 25.014 176.955 23.922C176.731 22.802 176.465 21.892 176.157 21.192C175.821 20.408 175.443 19.778 175.023 19.302L180.357 17.622C180.581 17.902 180.819 18.224 181.071 18.588C181.267 18.896 181.477 19.288 181.701 19.764C181.925 20.24 182.107 20.786 182.247 21.402C182.947 20.058 183.773 19.092 184.725 18.504C185.705 17.916 186.853 17.622 188.169 17.622C188.757 17.622 189.275 17.678 189.723 17.79C190.199 17.874 190.591 17.972 190.899 18.084L189.177 24.426C188.981 24.314 188.715 24.216 188.379 24.132C188.071 24.02 187.679 23.964 187.203 23.964ZM202.168 18.084H205.612L206.326 13.758L212.08 12.498V18.084H217.036L216.238 22.956H212.08V32.322C212.08 33.554 212.724 34.17 214.012 34.17C214.712 34.17 215.384 34.1 216.028 33.96C216.364 33.876 216.7 33.792 217.036 33.708L218.17 38.16C217.61 38.356 216.826 38.58 215.818 38.832C214.838 39.056 213.634 39.168 212.206 39.168C210.106 39.168 208.454 38.734 207.25 37.866C206.074 36.998 205.486 35.528 205.486 33.456V22.956H202.168V18.084ZM227.225 19.512C227.953 18.868 228.793 18.392 229.745 18.084C230.697 17.776 231.691 17.622 232.727 17.622C234.911 17.622 236.465 18.28 237.389 19.596C238.313 20.912 238.775 22.69 238.775 24.93V39H232.097V25.896C232.097 24.916 231.971 24.132 231.719 23.544C231.495 22.928 231.061 22.62 230.417 22.62C230.053 22.62 229.675 22.746 229.283 22.998C228.919 23.222 228.583 23.572 228.275 24.048C227.967 24.496 227.715 25.056 227.519 25.728C227.323 26.372 227.225 27.1 227.225 27.912V39H220.589V9.684L227.225 8.55V19.512ZM242.093 29.046C242.093 27.17 242.359 25.518 242.891 24.09C243.451 22.634 244.207 21.43 245.159 20.478C246.139 19.498 247.273 18.756 248.561 18.252C249.849 17.748 251.249 17.496 252.761 17.496C254.077 17.496 255.197 17.664 256.121 18C257.045 18.308 257.801 18.756 258.389 19.344C258.977 19.904 259.411 20.576 259.691 21.36C259.971 22.116 260.111 22.942 260.111 23.838C260.111 24.846 259.859 25.798 259.355 26.694C258.851 27.59 258.123 28.388 257.171 29.088C256.247 29.76 255.113 30.32 253.769 30.768C252.453 31.216 250.955 31.51 249.275 31.65C249.471 32.49 249.821 33.176 250.325 33.708C250.857 34.212 251.655 34.464 252.719 34.464C253.335 34.464 253.993 34.394 254.693 34.254C255.393 34.114 256.037 33.96 256.625 33.792C257.325 33.596 258.011 33.372 258.683 33.12L259.943 37.488C259.187 37.852 258.361 38.174 257.465 38.454C256.709 38.678 255.827 38.888 254.819 39.084C253.839 39.28 252.789 39.378 251.669 39.378C249.961 39.378 248.491 39.126 247.259 38.622C246.055 38.118 245.061 37.418 244.277 36.522C243.521 35.626 242.961 34.548 242.597 33.288C242.261 32 242.093 30.586 242.093 29.046ZM251.921 22.242C251.389 22.242 250.927 22.396 250.535 22.704C250.171 23.012 249.877 23.418 249.653 23.922C249.429 24.426 249.261 24.986 249.149 25.602C249.037 26.218 248.967 26.82 248.939 27.408C249.779 27.38 250.479 27.254 251.039 27.03C251.627 26.806 252.103 26.526 252.467 26.19C252.831 25.854 253.097 25.49 253.265 25.098C253.433 24.706 253.517 24.342 253.517 24.006C253.517 23.474 253.363 23.054 253.055 22.746C252.775 22.41 252.397 22.242 251.921 22.242ZM95.0165 85H89.7665L86.2805 76.936C86.1965 76.712 86.0285 76.306 85.7765 75.718C85.5525 75.102 85.2865 74.416 84.9785 73.66C84.6985 72.876 84.4045 72.078 84.0965 71.266C83.7885 70.454 83.5085 69.712 83.2565 69.04C83.2565 69.768 83.2565 70.608 83.2565 71.56C83.2565 72.512 83.2565 73.478 83.2565 74.458C83.2565 75.438 83.2425 76.362 83.2145 77.23C83.2145 78.098 83.2005 78.784 83.1725 79.288L82.9625 85H76.5785L78.2585 56.566H84.2225L90.7745 72.946C90.9705 73.45 91.2225 74.164 91.5305 75.088C91.8665 75.984 92.1885 76.964 92.4965 78.028C92.8045 76.992 93.1125 76.026 93.4205 75.13C93.7565 74.206 94.0365 73.478 94.2605 72.946L100.813 56.566H106.651L108.331 85H101.821L101.569 79.288C101.541 78.756 101.513 78.056 101.485 77.188C101.485 76.32 101.485 75.41 101.485 74.458C101.485 73.478 101.485 72.512 101.485 71.56C101.513 70.58 101.527 69.74 101.527 69.04C101.303 69.628 101.051 70.3 100.771 71.056C100.519 71.784 100.253 72.498 99.9725 73.198C99.6925 73.898 99.4265 74.556 99.1745 75.172C98.9225 75.76 98.7265 76.222 98.5865 76.558L95.0165 85ZM121.281 56.566H127.455L137.871 85H130.857L128.757 78.154H119.559L117.375 85H110.487L121.281 56.566ZM127.203 73.03C126.923 72.218 126.629 71.378 126.321 70.51C126.041 69.614 125.761 68.746 125.481 67.906C125.229 67.066 124.991 66.282 124.767 65.554C124.543 64.798 124.347 64.168 124.179 63.664C124.011 64.196 123.815 64.84 123.591 65.596C123.367 66.324 123.115 67.108 122.835 67.948C122.583 68.788 122.303 69.642 121.995 70.51C121.715 71.378 121.435 72.218 121.155 73.03H127.203ZM149.842 89.998C150.738 89.494 151.48 88.99 152.068 88.486C152.684 87.982 153.174 87.422 153.538 86.806C153.93 86.19 154.21 85.518 154.378 84.79C154.546 84.034 154.63 83.194 154.63 82.27V81.976C154.07 83.04 153.258 83.866 152.194 84.454C151.13 85.014 149.87 85.294 148.414 85.294C146.762 85.294 145.292 84.972 144.004 84.328C142.744 83.684 141.68 82.76 140.812 81.556C139.972 80.324 139.328 78.84 138.88 77.104C138.432 75.34 138.208 73.352 138.208 71.14C138.208 68.984 138.46 66.996 138.964 65.176C139.496 63.328 140.294 61.746 141.358 60.43C142.422 59.086 143.766 58.05 145.39 57.322C147.042 56.566 148.988 56.188 151.228 56.188C152.88 56.188 154.462 56.51 155.974 57.154C157.514 57.77 158.788 58.694 159.796 59.926L156.562 63.874C155.75 63.09 154.882 62.432 153.958 61.9C153.034 61.368 152.124 61.102 151.228 61.102C149.24 61.102 147.812 61.956 146.944 63.664C146.104 65.372 145.684 67.724 145.684 70.72C145.684 72.176 145.768 73.506 145.936 74.71C146.104 75.886 146.356 76.894 146.692 77.734C147.056 78.574 147.49 79.218 147.994 79.666C148.526 80.114 149.156 80.338 149.884 80.338C150.444 80.338 150.962 80.128 151.438 79.708C151.942 79.288 152.376 78.756 152.74 78.112C153.132 77.44 153.426 76.698 153.622 75.886C153.846 75.074 153.958 74.262 153.958 73.45V70.3H160.594V83.698C160.594 85.406 160.356 86.834 159.88 87.982C159.404 89.158 158.774 90.138 157.99 90.922C157.234 91.734 156.352 92.406 155.344 92.938C154.364 93.47 153.37 93.946 152.362 94.366L149.842 89.998ZM165.018 56.566H171.948V85H165.018V56.566ZM193.329 63.496C192.545 62.544 191.789 61.914 191.061 61.606C190.333 61.27 189.605 61.102 188.877 61.102C187.057 61.102 185.727 61.956 184.887 63.664C184.075 65.344 183.669 67.682 183.669 70.678C183.669 72.106 183.753 73.422 183.921 74.626C184.117 75.802 184.439 76.81 184.887 77.65C185.335 78.49 185.923 79.148 186.651 79.624C187.407 80.1 188.345 80.338 189.465 80.338C190.445 80.338 191.397 80.226 192.321 80.002C193.273 79.75 194.141 79.47 194.925 79.162L196.437 83.866C195.569 84.23 194.477 84.552 193.161 84.832C191.845 85.112 190.333 85.252 188.625 85.252C184.313 85.252 181.163 84.034 179.175 81.598C177.187 79.134 176.193 75.648 176.193 71.14C176.193 68.956 176.445 66.954 176.949 65.134C177.481 63.314 178.265 61.746 179.301 60.43C180.365 59.086 181.681 58.05 183.249 57.322C184.845 56.566 186.721 56.188 188.877 56.188C189.997 56.188 190.977 56.286 191.817 56.482C192.685 56.678 193.441 56.944 194.085 57.28C194.729 57.588 195.289 57.952 195.765 58.372C196.269 58.792 196.717 59.226 197.109 59.674L193.329 63.496Z" fill="url(#paint1_linear_23_531)"/>
<defs>
<linearGradient id="paint0_linear_23_531" x1="66.4403" y1="93.2719" x2="210.56" y2="109.228" gradientUnits="userSpaceOnUse">
<stop stop-color="#820090"/>
<stop offset="1" stop-color="#8600F3"/>
</linearGradient>
<linearGradient id="paint1_linear_23_531" x1="136" y1="0" x2="136" y2="92" gradientUnits="userSpaceOnUse">
<stop stop-color="#FF8E0D"/>
<stop offset="1" stop-color="#7B2FD9"/>
</linearGradient>
</defs>
</svg>
