<svg width="16" height="16" viewBox="0 0 16 16" fill="none" xmlns="http://www.w3.org/2000/svg">
<path opacity="0.6" d="M0.494612 0.494537C1.15412 -0.164835 2.22379 -0.164866 2.88328 0.494537L8.00047 5.61172L13.1167 0.494537L13.2456 0.379303C13.9088 -0.161638 14.887 -0.123559 15.5054 0.494537C16.1649 1.15407 16.1648 2.22366 15.5054 2.88321L10.3882 8.0004L15.5054 13.1176C16.1649 13.7771 16.1649 14.8467 15.5054 15.5063C14.8458 16.1656 13.7762 16.1657 13.1167 15.5063L8.00047 10.3891L2.88328 15.5063C2.22378 16.1657 1.15413 16.1657 0.494612 15.5063C-0.164891 14.8467 -0.16485 13.7771 0.494612 13.1176L5.6118 8.0004L0.494612 2.88321C-0.16479 2.22366 -0.164873 1.15404 0.494612 0.494537ZM1.58739 15.0316C1.6154 15.0356 1.64313 15.0397 1.67137 15.0404C1.64315 15.0398 1.61539 15.0356 1.58739 15.0316ZM1.72606 15.0385C1.75524 15.037 1.7841 15.0346 1.81297 15.0297C1.78412 15.0347 1.75522 15.037 1.72606 15.0385ZM1.45555 15.0004C1.48345 15.0098 1.51089 15.0198 1.53953 15.0258C1.51089 15.0198 1.48344 15.0098 1.45555 15.0004ZM1.85789 15.019C1.88632 15.0122 1.91427 15.0047 1.94188 14.9945C1.9143 15.0047 1.88629 15.0122 1.85789 15.019ZM13.9097 14.9223V14.9213V14.9223ZM14.8276 14.8285C14.8627 14.7934 14.893 14.755 14.9194 14.7152C14.893 14.755 14.8627 14.7935 14.8276 14.8285ZM1.30906 14.933C1.34024 14.9521 1.37165 14.9698 1.40477 14.9838C1.37165 14.9698 1.34024 14.9521 1.30906 14.933ZM1.99168 14.9731C2.01775 14.9611 2.04305 14.9482 2.06785 14.933C2.04308 14.9482 2.01772 14.9611 1.99168 14.9731ZM2.1118 14.9037C2.12399 14.895 2.13814 14.8889 2.14989 14.8793L2.20555 14.8285C2.17665 14.8574 2.14396 14.8807 2.1118 14.9037ZM14.9341 14.6889C14.953 14.6576 14.971 14.6263 14.9848 14.5932C14.971 14.6263 14.953 14.6576 14.9341 14.6889ZM15.0034 14.5356C15.011 14.5122 15.0188 14.4891 15.0239 14.4652C15.0188 14.4891 15.0109 14.5122 15.0034 14.5356ZM15.0327 14.4086C15.0365 14.38 15.0391 14.3515 15.0395 14.3227C15.0391 14.3515 15.0365 14.38 15.0327 14.4086ZM15.0376 14.2777C15.0363 14.2496 15.0353 14.2216 15.0307 14.1938C15.0353 14.2216 15.0363 14.2496 15.0376 14.2777ZM15.0151 14.1283C15.0095 14.1066 15.0042 14.0851 14.9966 14.0639C15.0042 14.085 15.0095 14.1067 15.0151 14.1283ZM14.9702 14.0033C14.9591 13.9795 14.9479 13.9558 14.9341 13.933C14.9479 13.9558 14.9591 13.9795 14.9702 14.0033ZM14.9038 13.8881C14.895 13.8758 14.888 13.8618 14.8784 13.85L14.8276 13.7953C14.8565 13.8242 14.8808 13.856 14.9038 13.8881ZM8.44578 9.54044C8.50128 9.56961 8.55489 9.60411 8.60496 9.64493C8.55488 9.60409 8.50129 9.56963 8.44578 9.54044ZM9.645 8.60489C9.66548 8.63001 9.68702 8.65472 9.71043 8.67813C9.68853 8.65622 9.66825 8.63319 9.64891 8.60977L9.645 8.60489ZM9.43992 7.86368C9.43607 7.89059 9.43367 7.91764 9.43211 7.94473C9.43369 7.91765 9.43606 7.89058 9.43992 7.86368ZM6.55223 7.8168V7.81778V7.8168ZM9.48387 7.68497C9.47389 7.71367 9.46467 7.74253 9.4575 7.77188C9.46469 7.74254 9.47388 7.71365 9.48387 7.68497ZM6.35496 7.3959C6.39592 7.44614 6.43119 7.4994 6.46043 7.55508C6.4312 7.49938 6.39592 7.44615 6.35496 7.3959ZM9.645 7.39493V7.3959V7.39493ZM7.395 6.35489H7.39598H7.395ZM1.17235 14.8285C1.20749 14.8637 1.24576 14.8938 1.28563 14.9203C1.24577 14.8939 1.20749 14.8636 1.17235 14.8285ZM9.45164 7.79922C9.44707 7.82061 9.44302 7.84208 9.43992 7.86368C9.44303 7.84209 9.44706 7.82061 9.45164 7.79922Z" fill="url(#paint0_linear_0_371)"/>
<defs>
<linearGradient id="paint0_linear_0_371" x1="0.000471115" y1="0.000396729" x2="13.5293" y2="19.5693" gradientUnits="userSpaceOnUse">
<stop stop-color="#636262"/>
<stop offset="0.582575" stop-color="#C8C8C8"/>
<stop offset="0.746344" stop-color="#DCDCDC"/>
<stop offset="0.892397" stop-color="#C8C8C8"/>
<stop offset="1" stop-color="#5B5A5A"/>
</linearGradient>
</defs>
</svg>
