<svg width="16" height="16" viewBox="0 0 16 16" fill="none" xmlns="http://www.w3.org/2000/svg">
<path d="M0.494598 0.494537C1.1541 -0.164837 2.22378 -0.164866 2.88327 0.494537L8.00046 5.61172L13.1167 0.494537L13.2456 0.379303C13.9088 -0.161638 14.887 -0.123559 15.5053 0.494537C16.1649 1.15407 16.1648 2.22366 15.5053 2.88321L10.3882 8.0004L15.5053 13.1176C16.1649 13.7771 16.1649 14.8467 15.5053 15.5063C14.8458 16.1656 13.7761 16.1657 13.1167 15.5063L8.00046 10.3891L2.88327 15.5063C2.22377 16.1657 1.15412 16.1657 0.494598 15.5063C-0.164904 14.8467 -0.164862 13.7771 0.494598 13.1176L5.61179 8.0004L0.494598 2.88321C-0.164803 2.22366 -0.164886 1.15404 0.494598 0.494537ZM1.58737 15.0316C1.61539 15.0356 1.64312 15.0397 1.67136 15.0404C1.64313 15.0398 1.61538 15.0356 1.58737 15.0316ZM1.72604 15.0385C1.75522 15.037 1.78409 15.0346 1.81296 15.0297C1.78411 15.0347 1.7552 15.037 1.72604 15.0385ZM1.45554 15.0004C1.48344 15.0098 1.51087 15.0198 1.53952 15.0258C1.51088 15.0198 1.48343 15.0098 1.45554 15.0004ZM1.85788 15.019C1.8863 15.0122 1.91426 15.0047 1.94186 14.9945C1.91429 15.0047 1.88628 15.0122 1.85788 15.019ZM13.9096 14.9223V14.9213V14.9223ZM14.8276 14.8285C14.8627 14.7934 14.8929 14.755 14.9194 14.7152C14.893 14.755 14.8627 14.7935 14.8276 14.8285ZM1.30905 14.933C1.34023 14.9521 1.37163 14.9698 1.40475 14.9838C1.37164 14.9698 1.34022 14.9521 1.30905 14.933ZM1.99167 14.9731C2.01774 14.9611 2.04304 14.9482 2.06784 14.933C2.04306 14.9482 2.01771 14.9611 1.99167 14.9731ZM2.11179 14.9037C2.12397 14.895 2.13812 14.8889 2.14987 14.8793L2.20554 14.8285C2.17664 14.8574 2.14395 14.8807 2.11179 14.9037ZM14.9341 14.6889C14.953 14.6576 14.971 14.6263 14.9848 14.5932C14.971 14.6263 14.953 14.6576 14.9341 14.6889ZM15.0034 14.5356C15.0109 14.5122 15.0188 14.4891 15.0239 14.4652C15.0188 14.4891 15.0109 14.5122 15.0034 14.5356ZM15.0327 14.4086C15.0365 14.38 15.0391 14.3515 15.0395 14.3227C15.0391 14.3515 15.0365 14.38 15.0327 14.4086ZM15.0376 14.2777C15.0363 14.2496 15.0353 14.2216 15.0307 14.1938C15.0353 14.2216 15.0363 14.2496 15.0376 14.2777ZM15.0151 14.1283C15.0095 14.1066 15.0042 14.0851 14.9966 14.0639C15.0042 14.085 15.0095 14.1067 15.0151 14.1283ZM14.9702 14.0033C14.959 13.9795 14.9479 13.9558 14.9341 13.933C14.9479 13.9558 14.959 13.9795 14.9702 14.0033ZM14.9038 13.8881C14.895 13.8758 14.888 13.8618 14.8784 13.85L14.8276 13.7953C14.8565 13.8242 14.8808 13.856 14.9038 13.8881ZM8.44577 9.54044C8.50127 9.56961 8.55487 9.60411 8.60495 9.64493C8.55487 9.60409 8.50128 9.56963 8.44577 9.54044ZM9.64499 8.60489C9.66547 8.63001 9.68701 8.65472 9.71042 8.67813C9.68851 8.65622 9.66823 8.63319 9.6489 8.60977L9.64499 8.60489ZM9.43991 7.86368C9.43606 7.89059 9.43366 7.91764 9.4321 7.94473C9.43368 7.91765 9.43604 7.89058 9.43991 7.86368ZM6.55222 7.8168V7.81778V7.8168ZM9.48386 7.68497C9.47388 7.71367 9.46466 7.74253 9.45749 7.77188C9.46467 7.74254 9.47386 7.71365 9.48386 7.68497ZM6.35495 7.3959C6.39591 7.44614 6.43118 7.4994 6.46042 7.55508C6.43118 7.49938 6.3959 7.44615 6.35495 7.3959ZM9.64499 7.39493V7.3959V7.39493ZM7.39499 6.35489H7.39597H7.39499ZM1.17233 14.8285C1.20747 14.8637 1.24575 14.8938 1.28561 14.9203C1.24576 14.8939 1.20748 14.8636 1.17233 14.8285ZM9.45163 7.79922C9.44706 7.82061 9.443 7.84208 9.43991 7.86368C9.44302 7.84209 9.44705 7.82061 9.45163 7.79922Z" fill="white"/>
</svg>
