<svg width="42" height="42" viewBox="0 0 42 42" fill="none" xmlns="http://www.w3.org/2000/svg">
<circle cx="21" cy="21" r="21" fill="#6155F5"/>
<path d="M10.6809 10.6805C11.5878 9.77379 13.0573 9.77372 13.9641 10.6805L21.0003 17.7167L28.0364 10.6805L28.2122 10.5204C29.1243 9.77651 30.4704 9.83037 31.3206 10.6805C32.227 11.5873 32.2269 13.057 31.3206 13.9637L24.2844 20.9999L31.3206 28.036C32.2273 28.9428 32.2273 30.4134 31.3206 31.3202C30.4138 32.227 28.9433 32.2269 28.0364 31.3202L21.0003 24.2841L13.9641 31.3202C13.0574 32.2268 11.5878 32.2267 10.6809 31.3202C9.77407 30.4133 9.77406 28.9429 10.6809 28.036L17.7161 20.9999L10.6809 13.9637C9.77407 13.0569 9.77407 11.5874 10.6809 10.6805ZM12.509 30.6639C12.4496 30.6751 12.3896 30.6811 12.3294 30.6815C12.3896 30.6811 12.4496 30.6751 12.509 30.6639ZM12.2337 30.6776C12.2594 30.6799 12.285 30.6812 12.3108 30.6815C12.285 30.6812 12.2593 30.6799 12.2337 30.6776ZM12.136 30.6639C12.1639 30.6692 12.1918 30.6737 12.22 30.6766C12.1918 30.6738 12.1639 30.6692 12.136 30.6639ZM29.3919 30.6405V30.6415V30.6405ZM12.9563 30.4579C12.8257 30.5643 12.674 30.6321 12.5169 30.663C12.6742 30.6322 12.8256 30.5644 12.9563 30.4579ZM11.9563 30.6122C12.0114 30.6338 12.0678 30.6505 12.1253 30.662C12.0678 30.6505 12.0114 30.6337 11.9563 30.6122ZM11.6936 30.4598C11.7429 30.4996 11.7946 30.5343 11.8489 30.5634C11.7946 30.5343 11.7429 30.4996 11.6936 30.4598ZM11.6126 30.3885H11.6116C11.6354 30.4124 11.6612 30.434 11.6868 30.455C11.6613 30.4341 11.6363 30.4123 11.6126 30.3885ZM30.513 30.2343C30.4769 30.2883 30.4366 30.3409 30.3889 30.3885C30.4366 30.3408 30.4768 30.2883 30.513 30.2343ZM30.5784 30.1219C30.5876 30.1033 30.5958 30.0844 30.6038 30.0653C30.5958 30.0844 30.5876 30.1033 30.5784 30.1219ZM30.6233 30.0145C30.6268 30.0047 30.6309 29.9951 30.634 29.9852C30.6309 29.9951 30.6268 30.0047 30.6233 30.0145ZM30.6516 29.9208C30.6539 29.9116 30.6564 29.9026 30.6585 29.8934C30.6565 29.9026 30.6539 29.9116 30.6516 29.9208ZM30.6682 29.8417C30.671 29.8248 30.6731 29.8079 30.6751 29.7909C30.6731 29.8079 30.671 29.8248 30.6682 29.8417ZM30.678 29.7577C30.6796 29.7372 30.6815 29.7167 30.6819 29.6962C30.6815 29.7167 30.6796 29.7372 30.678 29.7577ZM30.6819 29.6581C30.6815 29.6395 30.6804 29.621 30.679 29.6024C30.6804 29.621 30.6815 29.6395 30.6819 29.6581ZM30.676 29.5682C30.6737 29.5469 30.6699 29.5259 30.6663 29.5048C30.67 29.5259 30.6737 29.5469 30.676 29.5682ZM30.6614 29.4764C30.6572 29.4558 30.6523 29.4353 30.6467 29.4149C30.6523 29.4353 30.6572 29.4558 30.6614 29.4764ZM30.638 29.3817C30.6321 29.3626 30.6254 29.3438 30.6184 29.3251C30.6254 29.3438 30.6321 29.3627 30.638 29.3817ZM30.4573 29.0438C30.52 29.1207 30.5692 29.2047 30.6057 29.2928C30.5693 29.2049 30.5208 29.1206 30.4583 29.0438H30.4573ZM11.6116 28.9677C11.5872 28.9921 11.5646 29.0177 11.5432 29.0438C11.5647 29.0175 11.5881 28.9922 11.6126 28.9677L18.6477 21.9315L11.6116 28.9677ZM20.1682 23.2616H20.1692H20.1682ZM21.6135 23.1171C21.5753 23.097 21.536 23.0794 21.4964 23.0634C21.5754 23.0954 21.652 23.1354 21.7249 23.1835L21.6135 23.1171ZM20.7483 22.9901V22.9911V22.9901ZM23.2327 21.7919C23.2692 21.8403 23.3087 21.8874 23.3528 21.9315C23.3087 21.8874 23.2692 21.8403 23.2327 21.7919ZM19.0305 21.0634C19.0336 21.0002 19.0336 20.9369 19.0276 20.8739C19.0336 20.9369 19.0336 21.0002 19.0305 21.0634ZM23.0706 20.4852C23.118 20.3733 23.1822 20.2667 23.262 20.1688L23.3528 20.0682L23.262 20.1678C23.1819 20.266 23.1181 20.373 23.0706 20.4852ZM11.6116 13.0321L18.6477 20.0682C18.6799 20.1004 18.7104 20.1343 18.7385 20.1688C18.7103 20.1342 18.68 20.1005 18.6477 20.0682L11.6126 13.0321H11.6116ZM11.8831 11.4188C11.8443 11.4377 11.8064 11.4591 11.7698 11.4833C11.8064 11.4591 11.8443 11.4377 11.8831 11.4188ZM11.8733 30.5751C11.8965 30.5867 11.9198 30.5976 11.9436 30.6073C11.9198 30.5976 11.8965 30.5867 11.8733 30.5751ZM30.5198 30.2235C30.5354 30.1995 30.5504 30.1753 30.5637 30.1503C30.5504 30.1753 30.5354 30.1995 30.5198 30.2235Z" fill="white"/>
</svg>
