<svg width="42" height="42" viewBox="0 0 42 42" fill="none" xmlns="http://www.w3.org/2000/svg">
<g opacity="0.5">
<circle cx="21" cy="21" r="21" fill="#1E1E2D"/>
<path d="M15.151 10.8388C18.1641 9.11207 22.0169 10.1368 23.7565 13.1276C25.0406 15.3351 24.814 17.9965 23.3956 19.9335L25.0785 22.8267L26.7371 21.8762C27.1627 21.6323 27.707 21.7772 27.9528 22.1996C28.1984 22.622 28.0524 23.1621 27.6269 23.406L25.9683 24.3565L27.0065 26.141L28.665 25.1908C29.0906 24.9469 29.635 25.0915 29.8807 25.5139C30.1264 25.9364 29.9804 26.4767 29.5548 26.7206L27.8963 27.6708L28.2479 28.2754C28.9386 29.4629 28.5287 30.9814 27.3323 31.667C26.136 32.3525 24.6063 31.9457 23.9156 30.7582L19.0879 22.4592C16.6489 22.763 14.1513 21.6261 12.845 19.3804C11.1054 16.3897 12.1378 12.5655 15.151 10.8388ZM22.1015 21.2414C21.8961 21.3952 21.6791 21.5383 21.4506 21.6692C21.2563 21.7806 21.0582 21.8801 20.8577 21.9688L25.4568 29.875C25.6561 30.2176 26.0973 30.335 26.4425 30.1372C26.7877 29.9394 26.906 29.5012 26.7067 29.1586L22.1015 21.2414ZM22.2153 14.0108C20.9671 11.8649 18.2027 11.1296 16.0408 12.3686C13.8788 13.6075 13.1381 16.3513 14.3863 18.4972C15.6345 20.6431 18.3988 21.3783 20.5608 20.1394C22.7228 18.9005 23.4635 16.1567 22.2153 14.0108ZM16.5723 13.4237C17.5653 12.8546 18.8352 13.1924 19.4086 14.1781C19.9818 15.1637 19.6415 16.4239 18.6485 16.993C17.6555 17.562 16.3859 17.2244 15.8125 16.2389C15.2392 15.2532 15.5793 13.9928 16.5723 13.4237ZM17.8673 15.0613C17.7854 14.9205 17.604 14.8722 17.4621 14.9535C17.3203 15.0348 17.2716 15.2149 17.3535 15.3557C17.4354 15.4964 17.6169 15.5445 17.7587 15.4632C17.9005 15.3819 17.9491 15.2021 17.8673 15.0613Z" fill="white"/>
</g>
</svg>
