<svg width="30" height="30" viewBox="0 0 30 30" fill="none" xmlns="http://www.w3.org/2000/svg">
<circle cx="15" cy="15" r="15" fill="#6155F5"/>
<path d="M13.5714 5.35718C13.1975 5.35718 12.8153 5.48832 12.5446 5.75896C12.274 6.02961 12.1429 6.41187 12.1429 6.78575V7.50003H7.85715V8.92861H8.57143V20.3572C8.57143 21.5318 9.53963 22.5 10.7143 22.5H19.2857C20.4604 22.5 21.4286 21.5318 21.4286 20.3572V8.92861H22.1429V7.50003H17.8571V6.78575C17.8571 6.41187 17.726 6.02961 17.4554 5.75896C17.1847 5.48832 16.8025 5.35718 16.4286 5.35718H13.5714ZM13.5714 6.78575H16.4286V7.50003H13.5714V6.78575ZM10 8.92861H20V20.3572C20 20.7534 19.6819 21.0715 19.2857 21.0715H10.7143C10.3181 21.0715 10 20.7534 10 20.3572V8.92861ZM11.4286 11.0715V18.9286H12.8571V11.0715H11.4286ZM14.2857 11.0715V18.9286H15.7143V11.0715H14.2857ZM17.1429 11.0715V18.9286H18.5714V11.0715H17.1429Z" fill="#FF8D28"/>
</svg>
