<svg width="42" height="42" viewBox="0 0 42 42" fill="none" xmlns="http://www.w3.org/2000/svg">
<circle cx="21" cy="21" r="21" fill="#6155F5"/>
<path d="M9 29C9 29.5523 9.44772 30 10 30L32 30C32.5523 30 33 29.5523 33 29V11.3796C33 10.8273 32.5523 10.3796 32 10.3796L27.4009 10.3796C26.5223 10.3796 26.0867 11.4456 26.7138 12.0609C26.8973 12.2408 27.1439 12.3416 27.4009 12.3416L30 12.3416C30.5523 12.3416 31 12.7893 31 13.3416V27.038C31 27.5902 30.5523 28.038 30 28.038L12 28.038C11.4477 28.038 11 27.5902 11 27.038V13.3416C11 12.7893 11.4477 12.3416 12 12.3416L14.5991 12.3416C14.8561 12.3416 15.1027 12.2408 15.2862 12.0609C15.9133 11.4456 15.4777 10.3796 14.5991 10.3796L10 10.3796C9.44772 10.3796 9 10.8273 9 11.3796L9 29ZM16.7149 13.1987C16.3219 13.587 16.323 14.222 16.7174 14.6089C17.1006 14.9849 17.7137 14.9867 18.0991 14.6131L18.304 14.4145C18.9384 13.7997 20 14.2492 20 15.1326V21.2438C20 21.7961 20.4477 22.2438 21 22.2438C21.5523 22.2438 22 21.7961 22 21.2438V15.1326C22 14.2492 23.0616 13.7997 23.696 14.4145L23.9009 14.6131C24.2863 14.9867 24.8994 14.9849 25.2826 14.6089C25.677 14.222 25.6781 13.587 25.2851 13.1987L21.7188 9.67446L21.6843 9.64211C21.2995 9.28107 20.7005 9.28107 20.3157 9.64211L20.2812 9.67446L16.7149 13.1987Z" fill="white"/>
</svg>
