<svg width="24" height="24" viewBox="0 0 24 24" fill="none" xmlns="http://www.w3.org/2000/svg">
<path d="M20.7226 11.3529C20.7226 8.24552 19.0456 5.53168 16.5506 4.07291C16.482 4.04318 16.4156 4.0063 16.3534 3.96082C15.1604 3.30602 13.7914 2.93357 12.3359 2.93357C7.70409 2.93363 3.94918 6.70312 3.94912 11.3529C3.94912 16.0027 7.70405 19.7722 12.3359 19.7722C16.9677 19.7722 20.7226 16.0028 20.7226 11.3529ZM11.1378 5.68274C11.1378 5.11346 11.5976 4.65186 12.1647 4.6518C12.7318 4.6518 13.1916 5.11342 13.1917 5.68274V10.8374H15.5879C16.155 10.8374 16.6148 11.2991 16.6148 11.8684C16.6148 12.4377 16.155 12.8993 15.5879 12.8993H11.1378V5.68274ZM4.88782 2.42146C4.26467 1.92879 3.15497 1.91646 2.53105 2.54194C1.90901 3.16847 1.92154 4.28163 2.41204 4.90685L3.41158 5.91027C4.02538 4.89816 4.80529 3.99874 5.71319 3.25004L4.88782 2.42146ZM21.4688 2.54194C20.8451 1.91675 19.7359 1.92864 19.1127 2.42079L18.5821 2.95337C19.5224 3.65914 20.3398 4.52058 20.9974 5.49917L21.5884 4.90585C22.0783 4.28043 22.0906 3.16816 21.4688 2.54194ZM22.7765 11.3529C22.7765 14.8074 21.1115 17.8712 18.5434 19.7806L20.0804 22.4533C20.364 22.9464 20.1955 23.5771 19.7044 23.8618C19.2132 24.1464 18.5852 23.9773 18.3017 23.4842L16.7803 20.8391C15.4317 21.4769 13.9254 21.8341 12.3359 21.8341C10.5904 21.8341 8.94531 21.4036 7.49932 20.6434L5.86563 23.4842C5.58204 23.9773 4.95378 24.1464 4.4626 23.8618C3.97146 23.5771 3.80328 22.9463 4.08685 22.4533L5.77971 19.5095C3.41079 17.5881 1.89522 14.6483 1.89522 11.3529C1.89524 10.1363 2.1022 8.96825 2.48191 7.88188C2.44961 7.85644 2.4184 7.82886 2.38864 7.79899L0.918085 6.32272L0.884321 6.28916L0.854235 6.25258C-0.256658 4.90978 -0.372807 2.59484 1.03542 1.12977C1.03741 1.12752 1.03943 1.12529 1.04144 1.12306L1.07788 1.0848L1.08055 1.08211L1.11866 1.04553C1.12089 1.04351 1.12311 1.04149 1.12535 1.03949C2.53867 -0.329573 4.74576 -0.263545 6.09863 0.754911L6.22833 0.857602L6.26477 0.887806L6.2982 0.9217L7.45686 2.08486C8.91305 1.31069 10.5734 0.871715 12.3359 0.871697C13.9199 0.871697 15.4213 1.22666 16.7663 1.86035L17.7354 0.887806L17.7718 0.857602C19.1104 -0.25841 21.4186 -0.374419 22.8778 1.04251C22.892 1.05526 22.906 1.06844 22.9196 1.08211C22.92 1.08249 22.9206 1.08342 22.9213 1.08413L22.9219 1.0848L22.9584 1.12306C22.9595 1.12435 22.9606 1.12578 22.9617 1.12708C24.3728 2.592 24.2575 4.90892 23.1459 6.25258L23.1155 6.28916L22.008 7.40064C22.5031 8.62039 22.7765 9.95452 22.7765 11.3529Z" fill="#8B8B94"/>
</svg>
