<svg width="23" height="24" viewBox="0 0 23 24" fill="none" xmlns="http://www.w3.org/2000/svg">
<path d="M18.5803 12.5942H4.74907V21.3181C4.74909 21.6884 5.04396 21.9886 5.4077 21.9886H17.9216C18.2854 21.9886 18.5803 21.6884 18.5803 21.3181V12.5942ZM11.912 2.15878C11.6712 1.96233 11.3288 1.96234 11.088 2.15878L2.22776 9.38921C1.74229 9.78541 2.01751 10.5828 2.63973 10.5828H20.3603C20.9825 10.5828 21.2577 9.78541 20.7723 9.38921L11.912 2.15878ZM20.5562 21.3181C20.5561 22.7993 19.3766 24 17.9216 24H5.4077C3.95271 24 2.7732 22.7993 2.77319 21.3181V12.5942H2.63973C0.150728 12.5942 -0.950148 9.40457 0.991869 7.81977L9.85216 0.589342C10.8151 -0.196443 12.1849 -0.196451 13.1479 0.589342L22.0082 7.81977C23.8984 9.36236 22.9057 12.4249 20.5562 12.587V21.3181Z" fill="#8B8B94"/>
</svg>
