<svg width="20" height="16" viewBox="0 0 20 16" fill="none" xmlns="http://www.w3.org/2000/svg">
<path d="M1.14251 0.0591157C0.518077 -0.182486 -0.13032 0.354286 0.0226861 0.983055L1.5845 7.77044C1.61929 7.92166 1.61929 8.07834 1.5845 8.22956L0.0226861 15.0169C-0.13032 15.6457 0.518077 16.1825 1.14251 15.9409L19.4764 8.74914C20.1745 8.47403 20.1745 7.52597 19.4764 7.25086L1.14251 0.0591157ZM2.43504 4.11792C2.24102 3.27866 3.11006 2.57594 3.94 2.90099L9.68017 5.14913C10.8086 5.59108 10.4789 7.20092 9.26002 7.20092H4.03959C3.51858 7.20092 3.06753 6.8538 2.95477 6.36606L2.43504 4.11792ZM2.95477 9.63394C3.06753 9.1462 3.51858 8.79908 4.03959 8.79908H9.26002C10.4789 8.79908 10.8086 10.4089 9.68017 10.8509L3.94 13.099C3.11006 13.4241 2.24102 12.7213 2.43504 11.8821L2.95477 9.63394Z" fill="#FF8D28"/>
</svg>
