<svg width="42" height="42" viewBox="0 0 42 42" fill="none" xmlns="http://www.w3.org/2000/svg">
<circle cx="21" cy="21" r="21" fill="#6155F5"/>
<path d="M29.8078 11.3045C29.1468 10.654 28.0166 11.1147 28.0166 12.0347C28.0166 12.605 27.5468 13.0673 26.9673 13.0673H24.4162C24.0988 13.0673 23.8061 13.2358 23.6505 13.508L21.4455 17.3804C20.9895 18.1813 19.8182 18.1814 19.3621 17.3805L17.2475 13.6679C17.0362 13.297 16.6379 13.0673 16.2058 13.0673H11.8956C11.401 13.0673 11 13.462 11 13.9487C11 14.4355 11.401 14.8301 11.8956 14.8301H15.1435C15.5749 14.8301 15.9728 15.0592 16.1843 15.4292L19.039 20.4238C19.2435 20.7816 19.2435 21.2184 19.039 21.5762L16.1843 26.5708C15.9728 26.9408 15.5749 27.1698 15.1435 27.1698H11.8956C11.401 27.1698 11 27.5645 11 28.0513C11 28.538 11.401 28.9327 11.8956 28.9327H16.207C16.6384 28.9327 17.0363 28.7037 17.2478 28.3336L24.6235 15.4292C24.835 15.0592 25.2329 14.8301 25.6643 14.8301H26.9673C27.5468 14.8301 28.0166 15.2925 28.0166 15.8628C28.0166 16.7828 29.1468 17.2435 29.8078 16.593L31.6502 14.7797C32.1166 14.3208 32.1166 13.5767 31.6502 13.1177L29.8078 11.3045ZM23.2362 24.1435C22.8903 23.5384 22.0048 23.5391 21.6599 24.1447C21.5056 24.4154 21.5059 24.7458 21.6608 25.0163L23.5599 28.3342C23.7715 28.7039 24.1691 28.9327 24.6003 28.9327H26.9673C27.5468 28.9327 28.0166 29.395 28.0166 29.9653C28.0166 30.8853 29.1468 31.346 29.8078 30.6955L31.6502 28.8823C32.1166 28.4233 32.1166 27.6792 31.6502 27.2203L29.8078 25.407C29.1468 24.7565 28.0166 25.2172 28.0166 26.1372C28.0166 26.7075 27.5468 27.1698 26.9673 27.1698H25.6643C25.2329 27.1698 24.835 26.9408 24.6235 26.5708L23.2362 24.1435Z" fill="white"/>
</svg>
