<svg width="42" height="42" viewBox="0 0 42 42" fill="none" xmlns="http://www.w3.org/2000/svg">
<circle cx="21" cy="21" r="21" fill="#6155F5"/>
<path d="M16.8214 9C15.3855 9 14.202 10.1618 14.202 11.5714V21.6964L13.6291 21.1071L13.4108 20.9196C12.4046 19.9319 10.7607 19.9319 9.7546 20.9196C8.74847 21.9074 8.74847 23.5212 9.7546 24.5089V24.5357L16.9032 31.4732L16.9578 31.5L16.9851 31.5536C18.1618 32.4208 19.6624 33 21.3507 33H22.8514C26.8111 33 30 29.8694 30 25.9821V19.2857C30 17.8761 28.8165 16.7143 27.3806 16.7143C27.0089 16.7143 26.6644 16.8147 26.3438 16.9554C26.0573 15.8404 25.0239 15 23.8063 15C23.1378 15 22.5239 15.2578 22.0601 15.6696C21.5962 15.2578 20.9823 15 20.3139 15C20.0069 15 19.717 15.0636 19.4407 15.1607V11.5714C19.4407 10.1618 18.2573 9 16.8214 9ZM16.8214 10.7143C17.3057 10.7143 17.6945 11.096 17.6945 11.5714V21H19.4407V17.5714C19.4407 17.096 19.8296 16.7143 20.3139 16.7143C20.7982 16.7143 21.187 17.096 21.187 17.5714V21H22.9332V17.5714C22.9332 17.096 23.322 16.7143 23.8063 16.7143C24.2906 16.7143 24.6794 17.096 24.6794 17.5714V21H26.5075V19.2857C26.5075 18.8103 26.8963 18.4286 27.3806 18.4286C27.865 18.4286 28.2538 18.8103 28.2538 19.2857V25.9821C28.2538 28.952 25.8766 31.2857 22.8514 31.2857H21.3507C20.0717 31.2857 18.9667 30.8371 18.0492 30.1607L10.9824 23.3036C10.5936 22.9219 10.5936 22.5067 10.9824 22.125C11.3712 21.7433 11.7941 21.7433 12.183 22.125L15.9483 25.8214V11.5714C15.9483 11.096 16.3371 10.7143 16.8214 10.7143Z" fill="white"/>
</svg>
